<?xml version="1.0" encoding="utf-8"?>
<!-- Svg Vector Icons : http://www.onlinewebfonts.com/icon -->
<!DOCTYPE svg PUBLIC "-//W3C//DTD SVG 1.1//EN" "http://www.w3.org/Graphics/SVG/1.1/DTD/svg11.dtd">
<svg version="1.1" xmlns="http://www.w3.org/2000/svg" xmlns:xlink="http://www.w3.org/1999/xlink" x="0px" y="0px" viewBox="0 0 1000 1000" enable-background="new 0 0 1000 1000" xml:space="preserve">
<metadata> Svg Vector Icons : http://www.onlinewebfonts.com/icon </metadata>
<g><path d="M871.5,272.2H696.6V94.7c0-46.7-38-84.7-84.7-84.7H388.1c-46.7,0-84.7,38-84.7,84.7v177.5H128.5c-46.7,0-84.7,38-84.7,84.7v548.4c0,46.7,38,84.7,84.7,84.7h743.1c46.7,0,84.7-38,84.7-84.7V356.9C956.3,310.2,918.3,272.2,871.5,272.2z M372.1,94.7c0-8.7,7.3-16,16-16h223.8c8.7,0,16,7.3,16,16v177.5H372.1V94.7z M128.5,340.9h743.1c8.7,0,16,7.3,16,16v137.5H112.4V356.9C112.4,348.2,119.8,340.9,128.5,340.9z M871.5,921.3H128.5c-8.7,0-16-7.3-16-16v-333h352.1v107c0,21.4,17.5,38.9,38.9,38.9l0,0c21.4,0,38.9-17.5,38.9-38.9v-107h345.2v333C887.6,914,880.2,921.3,871.5,921.3z"/></g>
</svg>