<?xml version="1.0" encoding="utf-8"?>
<!-- Svg Vector Icons : http://www.onlinewebfonts.com/icon -->
<!DOCTYPE svg PUBLIC "-//W3C//DTD SVG 1.1//EN" "http://www.w3.org/Graphics/SVG/1.1/DTD/svg11.dtd">
<svg version="1.1" xmlns="http://www.w3.org/2000/svg" xmlns:xlink="http://www.w3.org/1999/xlink" x="0px" y="0px" viewBox="0 0 1000 1000" enable-background="new 0 0 1000 1000" xml:space="preserve">
<metadata> Svg Vector Icons : http://www.onlinewebfonts.com/icon </metadata>
<g><path d="M102.5,407.3l24.2,49.2c3,6,10.1,8.7,16.2,6.1l158.8-66.8c3.4-28.4,13.2-81.7,40.5-128.9L107.9,390.6C101.8,393.8,99.4,401.2,102.5,407.3z"/><path d="M672.3,977.7L510,685.1l-78.9,120.6L558.3,990h114C674.3,986.3,674.5,981.7,672.3,977.7z"/><path d="M895.1,581.8L786.2,451c-5.7-6.8-15.9-7.8-22.7-2.1l-53.9,44.9L695,476.4c-5.9-7.2-14.7-11.3-24.1-11.3c-6.4,0-12.7,2.1-17.9,5.8L474.4,247.7c-5.4-10.4-14.7-18.3-25.9-21.9c-1.2-0.4-2.4-0.7-3.5-0.9c-31.8,13.1-53.9,37.8-69.3,65.3c-16.7,29.8-25.5,62.6-30.1,87.3c-1.3,7-2.3,13.4-3,18.8v197c0,2-0.5,4-1.4,5.8L143.6,978.2c-2,3.8-1.8,8.2,0.1,11.8h106.1l153-225.5l64-94.3c7.3-10.7,12.5-22.6,15.6-35.1c2.2-8.7,3.3-17.6,3.3-26.6V409.4l36.9,40.5l67.5,74.1c-3.7,4.7-6,10.5-6.5,16.5c-0.7,8.3,1.8,16.4,7.1,22.8l14.5,17.4l-53.9,44.9c-6.8,5.7-7.8,15.9-2.1,22.7l109,130.8c5.7,6.8,15.9,7.8,22.7,2.1L893,604.5C899.9,598.8,900.8,588.6,895.1,581.8z M627.1,562.5l-14.5-17.4c-0.3-0.4-0.5-0.9-0.6-1.4l60.1-49l-0.8-1.1c0.7,0.1,1.5,0.4,2,1l14.5,17.4L627.1,562.5z"/><path d="M427,185c3.3,0,6.5-0.2,9.7-0.6c5.3-0.6,10.5-1.7,15.5-3.2c36-10.8,62.3-44.2,62.3-83.8c0-48.3-39.2-87.5-87.5-87.5c-48.3,0-87.5,39.2-87.5,87.5C339.5,145.8,378.6,185,427,185z"/></g>
</svg>